<mxfile host="app.diagrams.net" modified="2023-04-28T11:12:38.722Z" agent="Mozilla/5.0 (Windows NT 10.0; Win64; x64; rv:109.0) Gecko/20100101 Firefox/112.0" etag="qQX-OwsTaGg2sgOCtiID" version="21.1.8" type="device">
  <diagram name="Page-1" id="p7txAmzPkpdcYTD37Mwu">
    <mxGraphModel dx="2284" dy="1864" grid="1" gridSize="10" guides="1" tooltips="1" connect="1" arrows="1" fold="1" page="1" pageScale="1" pageWidth="850" pageHeight="1100" math="0" shadow="0">
      <root>
        <mxCell id="0" />
        <mxCell id="1" parent="0" />
        <mxCell id="8ewc_VV61W5AArkcgIHu-48" style="edgeStyle=orthogonalEdgeStyle;rounded=0;orthogonalLoop=1;jettySize=auto;html=1;" parent="1" source="8ewc_VV61W5AArkcgIHu-7" target="8ewc_VV61W5AArkcgIHu-44" edge="1">
          <mxGeometry relative="1" as="geometry" />
        </mxCell>
        <mxCell id="8ewc_VV61W5AArkcgIHu-7" value="&lt;div&gt;User&lt;/div&gt;&lt;div&gt;&lt;br&gt;&lt;/div&gt;" style="shape=umlActor;verticalLabelPosition=bottom;verticalAlign=top;html=1;outlineConnect=0;" parent="1" vertex="1">
          <mxGeometry x="1070" y="379" width="30" height="60" as="geometry" />
        </mxCell>
        <mxCell id="8ewc_VV61W5AArkcgIHu-13" style="edgeStyle=orthogonalEdgeStyle;rounded=0;orthogonalLoop=1;jettySize=auto;html=1;" parent="1" source="8ewc_VV61W5AArkcgIHu-11" target="8ewc_VV61W5AArkcgIHu-12" edge="1">
          <mxGeometry relative="1" as="geometry" />
        </mxCell>
        <mxCell id="8ewc_VV61W5AArkcgIHu-11" value="API" style="sketch=0;points=[[0,0,0],[0.25,0,0],[0.5,0,0],[0.75,0,0],[1,0,0],[0,1,0],[0.25,1,0],[0.5,1,0],[0.75,1,0],[1,1,0],[0,0.25,0],[0,0.5,0],[0,0.75,0],[1,0.25,0],[1,0.5,0],[1,0.75,0]];outlineConnect=0;fontColor=#232F3E;gradientColor=#945DF2;gradientDirection=north;fillColor=#5A30B5;strokeColor=#ffffff;dashed=0;verticalLabelPosition=bottom;verticalAlign=top;align=center;html=1;fontSize=12;fontStyle=0;aspect=fixed;shape=mxgraph.aws4.resourceIcon;resIcon=mxgraph.aws4.api_gateway;" parent="1" vertex="1">
          <mxGeometry x="640" y="370" width="78" height="78" as="geometry" />
        </mxCell>
        <mxCell id="8ewc_VV61W5AArkcgIHu-17" style="edgeStyle=orthogonalEdgeStyle;rounded=0;orthogonalLoop=1;jettySize=auto;html=1;" parent="1" source="8ewc_VV61W5AArkcgIHu-12" target="8ewc_VV61W5AArkcgIHu-16" edge="1">
          <mxGeometry relative="1" as="geometry" />
        </mxCell>
        <mxCell id="8ewc_VV61W5AArkcgIHu-19" style="edgeStyle=orthogonalEdgeStyle;rounded=0;orthogonalLoop=1;jettySize=auto;html=1;exitX=0.5;exitY=0;exitDx=0;exitDy=0;exitPerimeter=0;entryX=0;entryY=0.75;entryDx=0;entryDy=0;entryPerimeter=0;" parent="1" source="8ewc_VV61W5AArkcgIHu-12" target="8ewc_VV61W5AArkcgIHu-18" edge="1">
          <mxGeometry relative="1" as="geometry">
            <mxPoint x="494.52380952380963" y="370" as="sourcePoint" />
            <mxPoint x="470" y="250" as="targetPoint" />
            <Array as="points">
              <mxPoint x="495" y="330" />
              <mxPoint x="430" y="330" />
              <mxPoint x="430" y="169" />
            </Array>
          </mxGeometry>
        </mxCell>
        <mxCell id="8ewc_VV61W5AArkcgIHu-20" style="edgeStyle=orthogonalEdgeStyle;rounded=0;orthogonalLoop=1;jettySize=auto;html=1;exitX=0.5;exitY=0;exitDx=0;exitDy=0;exitPerimeter=0;" parent="1" target="8ewc_VV61W5AArkcgIHu-14" edge="1">
          <mxGeometry relative="1" as="geometry">
            <mxPoint x="494.5" y="369.0000000000001" as="sourcePoint" />
            <mxPoint x="368.0000000000001" y="255.00000000000006" as="targetPoint" />
            <Array as="points">
              <mxPoint x="495" y="330" />
              <mxPoint x="430" y="330" />
              <mxPoint x="430" y="260" />
              <mxPoint x="359" y="260" />
            </Array>
          </mxGeometry>
        </mxCell>
        <mxCell id="8ewc_VV61W5AArkcgIHu-12" value="&lt;div&gt;Deployment &lt;br&gt;&lt;/div&gt;&lt;div&gt;Orchestrator&lt;/div&gt;" style="outlineConnect=0;dashed=0;verticalLabelPosition=bottom;verticalAlign=top;align=center;html=1;shape=mxgraph.aws3.lambda_function;fillColor=#F58534;gradientColor=none;" parent="1" vertex="1">
          <mxGeometry x="460" y="373" width="69" height="72" as="geometry" />
        </mxCell>
        <mxCell id="8ewc_VV61W5AArkcgIHu-14" value="DeploymentHistory" style="sketch=0;points=[[0,0,0],[0.25,0,0],[0.5,0,0],[0.75,0,0],[1,0,0],[0,1,0],[0.25,1,0],[0.5,1,0],[0.75,1,0],[1,1,0],[0,0.25,0],[0,0.5,0],[0,0.75,0],[1,0.25,0],[1,0.5,0],[1,0.75,0]];outlineConnect=0;fontColor=#232F3E;gradientColor=#4D72F3;gradientDirection=north;fillColor=#3334B9;strokeColor=#ffffff;dashed=0;verticalLabelPosition=bottom;verticalAlign=top;align=center;html=1;fontSize=12;fontStyle=0;aspect=fixed;shape=mxgraph.aws4.resourceIcon;resIcon=mxgraph.aws4.dynamodb;" parent="1" vertex="1">
          <mxGeometry x="320" y="110" width="78" height="78" as="geometry" />
        </mxCell>
        <mxCell id="8ewc_VV61W5AArkcgIHu-23" style="edgeStyle=orthogonalEdgeStyle;rounded=0;orthogonalLoop=1;jettySize=auto;html=1;" parent="1" source="8ewc_VV61W5AArkcgIHu-16" target="8ewc_VV61W5AArkcgIHu-21" edge="1">
          <mxGeometry relative="1" as="geometry" />
        </mxCell>
        <mxCell id="8ewc_VV61W5AArkcgIHu-16" value="Deployment-Request" style="sketch=0;points=[[0,0,0],[0.25,0,0],[0.5,0,0],[0.75,0,0],[1,0,0],[0,1,0],[0.25,1,0],[0.5,1,0],[0.75,1,0],[1,1,0],[0,0.25,0],[0,0.5,0],[0,0.75,0],[1,0.25,0],[1,0.5,0],[1,0.75,0]];outlineConnect=0;fontColor=#232F3E;gradientColor=#FF4F8B;gradientDirection=north;fillColor=#BC1356;strokeColor=#ffffff;dashed=0;verticalLabelPosition=bottom;verticalAlign=top;align=center;html=1;fontSize=12;fontStyle=0;aspect=fixed;shape=mxgraph.aws4.resourceIcon;resIcon=mxgraph.aws4.sqs;" parent="1" vertex="1">
          <mxGeometry x="280" y="370" width="78" height="78" as="geometry" />
        </mxCell>
        <mxCell id="8ewc_VV61W5AArkcgIHu-18" value="ClientConfigInfo" style="sketch=0;points=[[0,0,0],[0.25,0,0],[0.5,0,0],[0.75,0,0],[1,0,0],[0,1,0],[0.25,1,0],[0.5,1,0],[0.75,1,0],[1,1,0],[0,0.25,0],[0,0.5,0],[0,0.75,0],[1,0.25,0],[1,0.5,0],[1,0.75,0]];outlineConnect=0;fontColor=#232F3E;gradientColor=#4D72F3;gradientDirection=north;fillColor=#3334B9;strokeColor=#ffffff;dashed=0;verticalLabelPosition=bottom;verticalAlign=top;align=center;html=1;fontSize=12;fontStyle=0;aspect=fixed;shape=mxgraph.aws4.resourceIcon;resIcon=mxgraph.aws4.dynamodb;" parent="1" vertex="1">
          <mxGeometry x="466" y="110" width="78" height="78" as="geometry" />
        </mxCell>
        <mxCell id="8ewc_VV61W5AArkcgIHu-26" style="edgeStyle=orthogonalEdgeStyle;rounded=0;orthogonalLoop=1;jettySize=auto;html=1;entryX=0.5;entryY=1;entryDx=0;entryDy=0;entryPerimeter=0;" parent="1" source="8ewc_VV61W5AArkcgIHu-21" edge="1">
          <mxGeometry relative="1" as="geometry">
            <mxPoint x="134.5" y="298" as="targetPoint" />
          </mxGeometry>
        </mxCell>
        <mxCell id="8ewc_VV61W5AArkcgIHu-21" value="Deployment Activator" style="outlineConnect=0;dashed=0;verticalLabelPosition=bottom;verticalAlign=top;align=center;html=1;shape=mxgraph.aws3.lambda_function;fillColor=#F58534;gradientColor=none;" parent="1" vertex="1">
          <mxGeometry x="100" y="373" width="69" height="72" as="geometry" />
        </mxCell>
        <mxCell id="8ewc_VV61W5AArkcgIHu-29" style="edgeStyle=orthogonalEdgeStyle;rounded=0;orthogonalLoop=1;jettySize=auto;html=1;entryX=0.5;entryY=0;entryDx=0;entryDy=0;entryPerimeter=0;" parent="1" target="8ewc_VV61W5AArkcgIHu-28" edge="1">
          <mxGeometry relative="1" as="geometry">
            <Array as="points">
              <mxPoint x="110" y="10" />
              <mxPoint x="-11" y="10" />
            </Array>
            <mxPoint x="110" y="220" as="sourcePoint" />
          </mxGeometry>
        </mxCell>
        <mxCell id="8ewc_VV61W5AArkcgIHu-38" style="edgeStyle=orthogonalEdgeStyle;rounded=0;orthogonalLoop=1;jettySize=auto;html=1;" parent="1" target="8ewc_VV61W5AArkcgIHu-37" edge="1">
          <mxGeometry relative="1" as="geometry">
            <mxPoint x="95.5" y="259" as="sourcePoint" />
          </mxGeometry>
        </mxCell>
        <mxCell id="8ewc_VV61W5AArkcgIHu-39" value="&lt;div&gt;Deployment&lt;/div&gt;&lt;div&gt;Completed&lt;br&gt;&lt;/div&gt;" style="edgeLabel;html=1;align=center;verticalAlign=middle;resizable=0;points=[];" parent="8ewc_VV61W5AArkcgIHu-38" vertex="1" connectable="0">
          <mxGeometry x="0.2939" y="-1" relative="1" as="geometry">
            <mxPoint as="offset" />
          </mxGeometry>
        </mxCell>
        <mxCell id="8ewc_VV61W5AArkcgIHu-51" style="edgeStyle=orthogonalEdgeStyle;rounded=0;orthogonalLoop=1;jettySize=auto;html=1;" parent="1" target="8ewc_VV61W5AArkcgIHu-27" edge="1">
          <mxGeometry relative="1" as="geometry">
            <Array as="points">
              <mxPoint x="110" y="10" />
              <mxPoint x="-11" y="10" />
            </Array>
            <mxPoint x="110" y="220" as="sourcePoint" />
          </mxGeometry>
        </mxCell>
        <mxCell id="8ewc_VV61W5AArkcgIHu-57" style="edgeStyle=orthogonalEdgeStyle;rounded=0;orthogonalLoop=1;jettySize=auto;html=1;entryX=0.5;entryY=1;entryDx=0;entryDy=0;" parent="1" target="8ewc_VV61W5AArkcgIHu-53" edge="1">
          <mxGeometry relative="1" as="geometry">
            <Array as="points">
              <mxPoint x="134" y="-170" />
              <mxPoint x="-47" y="-170" />
            </Array>
            <mxPoint x="134.5" y="220" as="sourcePoint" />
          </mxGeometry>
        </mxCell>
        <mxCell id="8ewc_VV61W5AArkcgIHu-58" style="edgeStyle=orthogonalEdgeStyle;rounded=0;orthogonalLoop=1;jettySize=auto;html=1;entryX=0.5;entryY=1;entryDx=0;entryDy=0;" parent="1" edge="1">
          <mxGeometry relative="1" as="geometry">
            <mxPoint x="134.5" y="-220" as="targetPoint" />
            <Array as="points">
              <mxPoint x="135" y="-200" />
              <mxPoint x="135" y="-200" />
            </Array>
            <mxPoint x="134.5" y="220" as="sourcePoint" />
          </mxGeometry>
        </mxCell>
        <mxCell id="8ewc_VV61W5AArkcgIHu-59" style="edgeStyle=orthogonalEdgeStyle;rounded=0;orthogonalLoop=1;jettySize=auto;html=1;entryX=0.5;entryY=1;entryDx=0;entryDy=0;" parent="1" edge="1">
          <mxGeometry relative="1" as="geometry">
            <mxPoint x="319" y="-220" as="targetPoint" />
            <Array as="points">
              <mxPoint x="134" y="-170" />
              <mxPoint x="320" y="-170" />
              <mxPoint x="320" y="-220" />
            </Array>
            <mxPoint x="134.5" y="220" as="sourcePoint" />
          </mxGeometry>
        </mxCell>
        <mxCell id="8ewc_VV61W5AArkcgIHu-27" value="TF State File" style="sketch=0;points=[[0,0,0],[0.25,0,0],[0.5,0,0],[0.75,0,0],[1,0,0],[0,1,0],[0.25,1,0],[0.5,1,0],[0.75,1,0],[1,1,0],[0,0.25,0],[0,0.5,0],[0,0.75,0],[1,0.25,0],[1,0.5,0],[1,0.75,0]];outlineConnect=0;fontColor=#232F3E;gradientColor=#60A337;gradientDirection=north;fillColor=#277116;strokeColor=#ffffff;dashed=0;verticalLabelPosition=bottom;verticalAlign=top;align=center;html=1;fontSize=12;fontStyle=0;aspect=fixed;shape=mxgraph.aws4.resourceIcon;resIcon=mxgraph.aws4.s3;" parent="1" vertex="1">
          <mxGeometry x="-50" y="-100" width="78" height="78" as="geometry" />
        </mxCell>
        <mxCell id="8ewc_VV61W5AArkcgIHu-28" value="TF Plan" style="sketch=0;points=[[0,0,0],[0.25,0,0],[0.5,0,0],[0.75,0,0],[1,0,0],[0,1,0],[0.25,1,0],[0.5,1,0],[0.75,1,0],[1,1,0],[0,0.25,0],[0,0.5,0],[0,0.75,0],[1,0.25,0],[1,0.5,0],[1,0.75,0]];outlineConnect=0;fontColor=#232F3E;gradientColor=#60A337;gradientDirection=north;fillColor=#277116;strokeColor=#ffffff;dashed=0;verticalLabelPosition=bottom;verticalAlign=top;align=center;html=1;fontSize=12;fontStyle=0;aspect=fixed;shape=mxgraph.aws4.resourceIcon;resIcon=mxgraph.aws4.s3;" parent="1" vertex="1">
          <mxGeometry x="-50" y="40" width="78" height="78" as="geometry" />
        </mxCell>
        <mxCell id="8ewc_VV61W5AArkcgIHu-41" style="edgeStyle=orthogonalEdgeStyle;rounded=0;orthogonalLoop=1;jettySize=auto;html=1;entryX=0;entryY=0.5;entryDx=0;entryDy=0;entryPerimeter=0;" parent="1" source="8ewc_VV61W5AArkcgIHu-32" target="8ewc_VV61W5AArkcgIHu-14" edge="1">
          <mxGeometry relative="1" as="geometry">
            <Array as="points">
              <mxPoint x="-185" y="149" />
            </Array>
          </mxGeometry>
        </mxCell>
        <mxCell id="8ewc_VV61W5AArkcgIHu-32" value="&lt;div&gt;Post Deployment &lt;br&gt;&lt;/div&gt;&lt;div&gt;Processor&lt;/div&gt;" style="outlineConnect=0;dashed=0;verticalLabelPosition=bottom;verticalAlign=top;align=center;html=1;shape=mxgraph.aws3.lambda_function;fillColor=#F58534;gradientColor=none;" parent="1" vertex="1">
          <mxGeometry x="-220" y="373" width="69" height="72" as="geometry" />
        </mxCell>
        <mxCell id="8ewc_VV61W5AArkcgIHu-40" style="edgeStyle=orthogonalEdgeStyle;rounded=0;orthogonalLoop=1;jettySize=auto;html=1;" parent="1" source="8ewc_VV61W5AArkcgIHu-37" target="8ewc_VV61W5AArkcgIHu-32" edge="1">
          <mxGeometry relative="1" as="geometry" />
        </mxCell>
        <mxCell id="8ewc_VV61W5AArkcgIHu-37" value="" style="sketch=0;points=[[0,0,0],[0.25,0,0],[0.5,0,0],[0.75,0,0],[1,0,0],[0,1,0],[0.25,1,0],[0.5,1,0],[0.75,1,0],[1,1,0],[0,0.25,0],[0,0.5,0],[0,0.75,0],[1,0.25,0],[1,0.5,0],[1,0.75,0]];outlineConnect=0;fontColor=#232F3E;gradientColor=#FF4F8B;gradientDirection=north;fillColor=#BC1356;strokeColor=#ffffff;dashed=0;verticalLabelPosition=bottom;verticalAlign=top;align=center;html=1;fontSize=12;fontStyle=0;aspect=fixed;shape=mxgraph.aws4.resourceIcon;resIcon=mxgraph.aws4.sns;" parent="1" vertex="1">
          <mxGeometry x="-60.5" y="370" width="78" height="78" as="geometry" />
        </mxCell>
        <mxCell id="8ewc_VV61W5AArkcgIHu-46" style="edgeStyle=orthogonalEdgeStyle;rounded=0;orthogonalLoop=1;jettySize=auto;html=1;" parent="1" source="8ewc_VV61W5AArkcgIHu-44" target="8ewc_VV61W5AArkcgIHu-45" edge="1">
          <mxGeometry relative="1" as="geometry" />
        </mxCell>
        <mxCell id="8ewc_VV61W5AArkcgIHu-47" style="edgeStyle=orthogonalEdgeStyle;rounded=0;orthogonalLoop=1;jettySize=auto;html=1;" parent="1" source="8ewc_VV61W5AArkcgIHu-44" target="8ewc_VV61W5AArkcgIHu-11" edge="1">
          <mxGeometry relative="1" as="geometry" />
        </mxCell>
        <mxCell id="8ewc_VV61W5AArkcgIHu-44" value="Application" style="sketch=0;points=[[0,0,0],[0.25,0,0],[0.5,0,0],[0.75,0,0],[1,0,0],[0,1,0],[0.25,1,0],[0.5,1,0],[0.75,1,0],[1,1,0],[0,0.25,0],[0,0.5,0],[0,0.75,0],[1,0.25,0],[1,0.5,0],[1,0.75,0]];outlineConnect=0;fontColor=#232F3E;gradientColor=#945DF2;gradientDirection=north;fillColor=#5A30B5;strokeColor=#ffffff;dashed=0;verticalLabelPosition=bottom;verticalAlign=top;align=center;html=1;fontSize=12;fontStyle=0;aspect=fixed;shape=mxgraph.aws4.resourceIcon;resIcon=mxgraph.aws4.cloudfront;" parent="1" vertex="1">
          <mxGeometry x="830" y="370" width="78" height="78" as="geometry" />
        </mxCell>
        <mxCell id="8ewc_VV61W5AArkcgIHu-45" value="&lt;div&gt;Website Package&lt;br&gt;&lt;/div&gt;&lt;div&gt;&lt;br&gt;&lt;/div&gt;" style="sketch=0;points=[[0,0,0],[0.25,0,0],[0.5,0,0],[0.75,0,0],[1,0,0],[0,1,0],[0.25,1,0],[0.5,1,0],[0.75,1,0],[1,1,0],[0,0.25,0],[0,0.5,0],[0,0.75,0],[1,0.25,0],[1,0.5,0],[1,0.75,0]];outlineConnect=0;fontColor=#232F3E;gradientColor=#60A337;gradientDirection=north;fillColor=#277116;strokeColor=#ffffff;dashed=0;verticalLabelPosition=bottom;verticalAlign=top;align=center;html=1;fontSize=12;fontStyle=0;aspect=fixed;shape=mxgraph.aws4.resourceIcon;resIcon=mxgraph.aws4.s3;" parent="1" vertex="1">
          <mxGeometry x="830" y="200" width="78" height="78" as="geometry" />
        </mxCell>
        <mxCell id="8ewc_VV61W5AArkcgIHu-52" value="&lt;font style=&quot;font-size: 15px;&quot;&gt;Auto-Deployment&lt;/font&gt;" style="points=[[0,0],[0.25,0],[0.5,0],[0.75,0],[1,0],[1,0.25],[1,0.5],[1,0.75],[1,1],[0.75,1],[0.5,1],[0.25,1],[0,1],[0,0.75],[0,0.5],[0,0.25]];outlineConnect=0;gradientColor=none;html=1;whiteSpace=wrap;fontSize=12;fontStyle=0;container=1;pointerEvents=0;collapsible=0;recursiveResize=0;shape=mxgraph.aws4.group;grIcon=mxgraph.aws4.group_account;strokeColor=#CD2264;fillColor=none;verticalAlign=top;align=left;spacingLeft=30;fontColor=#CD2264;dashed=0;" parent="1" vertex="1">
          <mxGeometry x="-330" y="-130" width="1310" height="740" as="geometry" />
        </mxCell>
        <mxCell id="Y3lnMkCBI5ea9zKKYKfn-3" style="edgeStyle=orthogonalEdgeStyle;rounded=0;orthogonalLoop=1;jettySize=auto;html=1;entryX=0;entryY=0.5;entryDx=0;entryDy=0;entryPerimeter=0;" edge="1" parent="8ewc_VV61W5AArkcgIHu-52" source="Y3lnMkCBI5ea9zKKYKfn-1" target="Y3lnMkCBI5ea9zKKYKfn-2">
          <mxGeometry relative="1" as="geometry" />
        </mxCell>
        <mxCell id="Y3lnMkCBI5ea9zKKYKfn-1" value="" style="shape=image;html=1;verticalAlign=top;verticalLabelPosition=bottom;labelBackgroundColor=#ffffff;imageAspect=0;aspect=fixed;image=https://cdn4.iconfinder.com/data/icons/socialcones/508/Gitlab-128.png" vertex="1" parent="8ewc_VV61W5AArkcgIHu-52">
          <mxGeometry x="420" y="340" width="90" height="90" as="geometry" />
        </mxCell>
        <mxCell id="Y3lnMkCBI5ea9zKKYKfn-5" style="edgeStyle=orthogonalEdgeStyle;rounded=0;orthogonalLoop=1;jettySize=auto;html=1;" edge="1" parent="8ewc_VV61W5AArkcgIHu-52" source="Y3lnMkCBI5ea9zKKYKfn-2" target="Y3lnMkCBI5ea9zKKYKfn-4">
          <mxGeometry relative="1" as="geometry" />
        </mxCell>
        <mxCell id="Y3lnMkCBI5ea9zKKYKfn-2" value="Deployment Authorizer" style="sketch=0;points=[[0,0,0],[0.25,0,0],[0.5,0,0],[0.75,0,0],[1,0,0],[0,1,0],[0.25,1,0],[0.5,1,0],[0.75,1,0],[1,1,0],[0,0.25,0],[0,0.5,0],[0,0.75,0],[1,0.25,0],[1,0.5,0],[1,0.75,0]];outlineConnect=0;fontColor=#232F3E;gradientColor=#945DF2;gradientDirection=north;fillColor=#5A30B5;strokeColor=#ffffff;dashed=0;verticalLabelPosition=bottom;verticalAlign=top;align=center;html=1;fontSize=12;fontStyle=0;aspect=fixed;shape=mxgraph.aws4.resourceIcon;resIcon=mxgraph.aws4.api_gateway;" vertex="1" parent="8ewc_VV61W5AArkcgIHu-52">
          <mxGeometry x="610" y="52" width="78" height="78" as="geometry" />
        </mxCell>
        <mxCell id="Y3lnMkCBI5ea9zKKYKfn-4" value="Deployment Authorizer" style="outlineConnect=0;dashed=0;verticalLabelPosition=bottom;verticalAlign=top;align=center;html=1;shape=mxgraph.aws3.lambda_function;fillColor=#F58534;gradientColor=none;" vertex="1" parent="8ewc_VV61W5AArkcgIHu-52">
          <mxGeometry x="770" y="55" width="69" height="72" as="geometry" />
        </mxCell>
        <mxCell id="8ewc_VV61W5AArkcgIHu-53" value="&lt;font style=&quot;font-size: 15px;&quot;&gt;Client Account&lt;br&gt;&lt;/font&gt;" style="points=[[0,0],[0.25,0],[0.5,0],[0.75,0],[1,0],[1,0.25],[1,0.5],[1,0.75],[1,1],[0.75,1],[0.5,1],[0.25,1],[0,1],[0,0.75],[0,0.5],[0,0.25]];outlineConnect=0;gradientColor=none;html=1;whiteSpace=wrap;fontSize=12;fontStyle=0;container=1;pointerEvents=0;collapsible=0;recursiveResize=0;shape=mxgraph.aws4.group;grIcon=mxgraph.aws4.group_account;strokeColor=#CD2264;fillColor=none;verticalAlign=top;align=left;spacingLeft=30;fontColor=#CD2264;dashed=0;" parent="1" vertex="1">
          <mxGeometry x="-122" y="-380" width="150" height="160" as="geometry" />
        </mxCell>
        <mxCell id="8ewc_VV61W5AArkcgIHu-61" value="" style="rounded=0;whiteSpace=wrap;html=1;" parent="1" vertex="1">
          <mxGeometry x="58.5" y="-380" width="152" height="160" as="geometry" />
        </mxCell>
        <mxCell id="8ewc_VV61W5AArkcgIHu-60" value="" style="verticalLabelPosition=bottom;html=1;verticalAlign=top;align=center;strokeColor=none;fillColor=#00BEF2;shape=mxgraph.azure.azure_subscription;" parent="1" vertex="1">
          <mxGeometry x="58.5" y="-380" width="50" height="35" as="geometry" />
        </mxCell>
        <mxCell id="8ewc_VV61W5AArkcgIHu-62" value="Client Subscription" style="text;html=1;strokeColor=none;fillColor=none;align=center;verticalAlign=middle;whiteSpace=wrap;rounded=0;" parent="1" vertex="1">
          <mxGeometry x="113.5" y="-375" width="60" height="30" as="geometry" />
        </mxCell>
        <mxCell id="8ewc_VV61W5AArkcgIHu-63" value="&lt;b&gt;Google &lt;/b&gt;Cloud Client Platform" style="fillColor=#F6F6F6;strokeColor=default;shadow=0;gradientColor=none;fontSize=14;align=left;spacing=10;fontColor=#717171;9E9E9E;verticalAlign=top;spacingTop=-4;fontStyle=0;spacingLeft=40;html=1;whiteSpace=wrap;" parent="1" vertex="1">
          <mxGeometry x="243.25" y="-380" width="151.5" height="160" as="geometry" />
        </mxCell>
        <mxCell id="8ewc_VV61W5AArkcgIHu-64" value="" style="shape=mxgraph.gcp2.google_cloud_platform;fillColor=#F6F6F6;strokeColor=none;shadow=0;gradientColor=none;" parent="8ewc_VV61W5AArkcgIHu-63" vertex="1">
          <mxGeometry width="23" height="20" relative="1" as="geometry">
            <mxPoint x="20" y="10" as="offset" />
          </mxGeometry>
        </mxCell>
        <mxCell id="8ewc_VV61W5AArkcgIHu-65" value="&lt;div&gt;Basically, this can be a service to help team without &quot;DevOps&quot; knowledge or cloud knowledge to quickly deploy in a &lt;br&gt;&lt;/div&gt;&lt;div&gt;cloud environment without having to manage servers. First it can contains best practices and over IaC. Then you have full &lt;br&gt;&lt;/div&gt;&lt;div&gt;visibility on the environment and cost. Other developers can come in and create their own Terraform plan in order&lt;/div&gt;&lt;div&gt;to help the platform support more deployment architecture. &lt;br&gt;&lt;/div&gt;&lt;div&gt;&lt;br&gt;&lt;/div&gt;&lt;div&gt;We could also offer other module like scheduler for simple tasks, logs aggregator, consulting and training services, helping tool adoption, etc.&lt;br&gt;&lt;/div&gt;" style="text;html=1;align=center;verticalAlign=middle;resizable=0;points=[];autosize=1;strokeColor=none;fillColor=none;" parent="1" vertex="1">
          <mxGeometry x="-110" y="620" width="790" height="100" as="geometry" />
        </mxCell>
        <mxCell id="Y3lnMkCBI5ea9zKKYKfn-6" style="edgeStyle=orthogonalEdgeStyle;rounded=0;orthogonalLoop=1;jettySize=auto;html=1;" edge="1" parent="1" source="Y3lnMkCBI5ea9zKKYKfn-4" target="8ewc_VV61W5AArkcgIHu-18">
          <mxGeometry relative="1" as="geometry" />
        </mxCell>
      </root>
    </mxGraphModel>
  </diagram>
</mxfile>
